<?xml version="1.0" standalone="no"?>
<!DOCTYPE svg PUBLIC "-//W3C//DTD SVG 20010904//EN"
 "http://www.w3.org/TR/2001/REC-SVG-20010904/DTD/svg10.dtd">
<svg version="1.0" xmlns="http://www.w3.org/2000/svg"
 width="114.000000pt" height="67.000000pt" viewBox="0 0 114.000000 67.000000"
 preserveAspectRatio="xMidYMid meet">
<metadata>
Created by potrace 1.16, written by Peter Selinger 2001-2019
</metadata>
<g transform="translate(0.000000,67.000000) scale(0.100000,-0.100000)"
fill="#000000" stroke="none">
<path d="M340 518 c17 -29 43 -74 58 -100 l27 -48 92 0 92 0 -21 -37 c-22 -36
-22 -36 -36 -15 -11 17 -24 22 -58 22 -24 0 -44 -3 -44 -7 0 -8 113 -204 116
-200 6 7 184 319 184 323 0 2 -62 4 -139 4 -111 0 -141 3 -151 15 -11 13 6 15
147 15 157 0 159 0 160 22 1 12 12 30 25 40 22 17 14 18 -230 18 l-252 0 30
-52z"/>
<path d="M230 505 l-31 -55 24 -41 c22 -37 26 -39 35 -23 6 11 13 17 15 14 7
-7 107 -181 107 -186 0 -2 -50 -4 -111 -4 -106 0 -110 1 -104 20 6 18 2 20
-38 20 -44 0 -46 -1 -76 -55 -17 -30 -31 -57 -31 -60 0 -3 113 -5 251 -5 138
0 249 4 247 9 -12 31 -242 421 -249 421 -4 0 -22 -25 -39 -55z"/>
<path d="M752 385 c-24 -52 -15 -123 23 -192 l36 -63 49 0 48 0 36 64 c28 50
36 75 36 115 0 70 -16 101 -52 101 -28 0 -28 0 -28 -64 0 -43 -6 -75 -17 -95
-10 -17 -20 -31 -23 -31 -3 0 -13 13 -23 29 -11 20 -17 51 -17 95 0 66 0 66
-28 66 -21 0 -32 -7 -40 -25z"/>
</g>
</svg>
